<mxfile host="65bd71144e">
    <diagram id="TZHPcAmodItcuH1QZ6ka" name="Page-1">
        <mxGraphModel dx="810" dy="472" grid="1" gridSize="10" guides="1" tooltips="1" connect="1" arrows="1" fold="1" page="1" pageScale="1" pageWidth="827" pageHeight="1169" math="0" shadow="0">
            <root>
                <mxCell id="0"/>
                <mxCell id="1" parent="0"/>
                <mxCell id="4" value="" style="whiteSpace=wrap;html=1;aspect=fixed;fillColor=#f5f5f5;fontColor=#333333;strokeColor=#666666;fontFamily=Helvetica;align=left;" parent="1" vertex="1">
                    <mxGeometry x="124" y="110" width="590" height="590" as="geometry"/>
                </mxCell>
                <mxCell id="50" style="edgeStyle=none;html=1;exitX=1;exitY=0.3333333333333333;exitDx=0;exitDy=0;exitPerimeter=0;strokeColor=#0000CC;" edge="1" parent="1" source="2" target="27">
                    <mxGeometry relative="1" as="geometry"/>
                </mxCell>
                <mxCell id="2" value="Profesor" style="shape=umlActor;verticalLabelPosition=bottom;verticalAlign=top;html=1;outlineConnect=0;" parent="1" vertex="1">
                    <mxGeometry x="30" y="250" width="40" height="110" as="geometry"/>
                </mxCell>
                <mxCell id="33" style="edgeStyle=none;html=1;entryX=0;entryY=1;entryDx=0;entryDy=0;fontFamily=Times New Roman;fontSize=14;" parent="1" edge="1">
                    <mxGeometry relative="1" as="geometry">
                        <mxPoint x="505.8093551046031" y="367.9246032231338" as="sourcePoint"/>
                        <mxPoint x="414.6446609406728" y="339.21320343559626" as="targetPoint"/>
                    </mxGeometry>
                </mxCell>
                <mxCell id="11" value="Hernandez.Jaya@epn.edu.ec" style="text;html=1;strokeColor=none;fillColor=none;align=center;verticalAlign=middle;whiteSpace=wrap;rounded=0;fontFamily=Times New Roman;fontStyle=1;fontSize=14;" parent="1" vertex="1">
                    <mxGeometry x="124" y="70" width="170" height="30" as="geometry"/>
                </mxCell>
                <mxCell id="40" style="edgeStyle=none;html=1;entryX=0.5;entryY=0;entryDx=0;entryDy=0;fontFamily=Times New Roman;fontSize=11;" parent="1" edge="1">
                    <mxGeometry relative="1" as="geometry">
                        <mxPoint x="360.240794654567" y="558.2179262617931" as="sourcePoint"/>
                        <mxPoint x="325" y="600" as="targetPoint"/>
                    </mxGeometry>
                </mxCell>
                <mxCell id="42" style="edgeStyle=none;html=1;entryX=0.5;entryY=0;entryDx=0;entryDy=0;fontFamily=Times New Roman;fontSize=11;" parent="1" edge="1">
                    <mxGeometry relative="1" as="geometry">
                        <mxPoint x="417.0115115851645" y="562.4034836337355" as="sourcePoint"/>
                        <mxPoint x="445" y="620" as="targetPoint"/>
                    </mxGeometry>
                </mxCell>
                <mxCell id="27" value="Ingresar datos de Usuario y ContraseÃ±a" style="ellipse;whiteSpace=wrap;html=1;fontFamily=Times New Roman;fontSize=11;" parent="1" vertex="1">
                    <mxGeometry x="354" y="380" width="130" height="84" as="geometry"/>
                </mxCell>
                <mxCell id="47" style="edgeStyle=none;html=1;exitX=1;exitY=0.3333333333333333;exitDx=0;exitDy=0;exitPerimeter=0;entryX=1.023;entryY=0.417;entryDx=0;entryDy=0;entryPerimeter=0;fillColor=#000099;strokeColor=#0000CC;" parent="1" source="45" target="27" edge="1">
                    <mxGeometry relative="1" as="geometry"/>
                </mxCell>
                <mxCell id="45" value="Estudiante 2" style="shape=umlActor;verticalLabelPosition=bottom;verticalAlign=top;html=1;outlineConnect=0;" parent="1" vertex="1">
                    <mxGeometry x="750" y="310" width="50" height="110" as="geometry"/>
                </mxCell>
                <mxCell id="49" style="edgeStyle=none;html=1;entryX=0;entryY=1;entryDx=0;entryDy=0;fillColor=#081D06;strokeColor=#0000CC;" parent="1" source="48" target="27" edge="1">
                    <mxGeometry relative="1" as="geometry"/>
                </mxCell>
                <mxCell id="48" value="Estudiante 1" style="shape=umlActor;verticalLabelPosition=bottom;verticalAlign=top;html=1;outlineConnect=0;" parent="1" vertex="1">
                    <mxGeometry x="30" y="420" width="50" height="110" as="geometry"/>
                </mxCell>
            </root>
        </mxGraphModel>
    </diagram>
</mxfile>